<?xml version="1.0" encoding="UTF-8"?>
<!DOCTYPE svg PUBLIC "-//W3C//DTD SVG 1.1//EN" "http://www.w3.org/Graphics/SVG/1.1/DTD/svg11.dtd">
<!-- Creator: CorelDRAW 2019 (64-Bit) -->
<svg xmlns="http://www.w3.org/2000/svg" xml:space="preserve" width="48px" height="48px" version="1.1" style="shape-rendering:geometricPrecision; text-rendering:geometricPrecision; image-rendering:optimizeQuality; fill-rule:evenodd; clip-rule:evenodd"
viewBox="0 0 48 48"
 xmlns:xlink="http://www.w3.org/1999/xlink">
 <defs>
  <style type="text/css">
   <![CDATA[
    .fil0 {fill:#EF7F1A}
   ]]>
  </style>
 </defs>
 <g id="Layer_x0020_1">
  <metadata id="CorelCorpID_0Corel-Layer"/>
  <path class="fil0" d="M24 0c-13.26,0 -24,10.74 -24,24 0,13.26 10.74,24 24,24 13.26,0 24,-10.75 24,-24 0,-13.25 -10.74,-24 -24,-24zm0 45c-11.6,0 -21,-9.4 -21,-21 0,-11.6 9.4,-21 21,-21 11.6,0 21,9.4 21,21 0,11.6 -9.4,21 -21,21z"/>
  <path class="fil0" d="M25.32 11.55c-0.36,-0.36 -0.88,-0.64 -1.35,-0.64 -0.47,0 -0.93,0.28 -1.29,0.64l-11.48 11.48c-0.59,0.59 -0.59,1.54 0,2.13 0.58,0.58 1.53,0.58 2.12,0l10.68 -10.69 10.68 10.69c0.59,0.58 1.54,0.58 2.12,0 0.59,-0.59 0.59,-1.54 0,-2.13l-11.48 -11.48z"/>
  <path class="fil0" d="M25.32 19.31c-0.36,-0.36 -0.88,-0.63 -1.35,-0.63 -0.47,0 -0.93,0.27 -1.29,0.63l-11.48 11.49c-0.59,0.59 -0.59,1.54 0,2.12 0.58,0.59 1.53,0.59 2.12,0l10.68 -10.68 10.68 10.68c0.59,0.59 1.54,0.59 2.12,0 0.59,-0.59 0.59,-1.54 0,-2.12l-11.48 -11.49z"/>
 </g>
</svg>
